<svg xmlns="http://www.w3.org/2000/svg" viewBox="0 0 1024 1024"><rect width="1024" height="1024" fill="#faf7f0"/><path fill="#5b7a3f" d="M1015,0h9v1h-9zM1015,1h9v1h-9zM1015,2h9v1h-9zM1015,3h9v1h-9zM1015,4h9v1h-9zM1015,5h9v1h-9zM1015,6h9v1h-9zM1015,7h9v1h-9zM1015,8h9v1h-9zM1015,9h9v1h-9zM1015,10h9v1h-9zM1015,11h9v1h-9zM1015,12h9v1h-9zM1015,13h9v1h-9zM1015,14h9v1h-9zM1015,15h9v1h-9zM1015,16h9v1h-9zM1015,17h9v1h-9zM1015,18h9v1h-9zM1015,19h9v1h-9zM1015,20h9v1h-9zM1015,21h9v1h-9zM1015,22h9v1h-9zM1015,23h9v1h-9zM1015,24h9v1h-9zM1015,25h9v1h-9zM1015,26h9v1h-9zM1015,27h9v1h-9zM1015,28h9v1h-9zM1015,29h9v1h-9zM1015,30h9v1h-9zM1015,31h9v1h-9zM1015,32h9v1h-9zM1015,33h9v1h-9zM1015,34h9v1h-9zM1015,35h9v1h-9zM1015,36h9v1h-9zM1015,37h9v1h-9zM1015,38h9v1h-9zM1015,39h9v1h-9zM1015,40h9v1h-9zM1015,41h9v1h-9zM1015,42h9v1h-9zM1015,43h9v1h-9zM1015,44h9v1h-9zM1015,45h9v1h-9zM1015,46h9v1h-9zM1015,47h9v1h-9zM1015,48h9v1h-9zM1015,49h9v1h-9zM1015,50h9v1h-9zM1015,51h9v1h-9zM1015,52h9v1h-9zM1015,53h9v1h-9zM1015,54h9v1h-9zM1015,55h9v1h-9zM1015,56h9v1h-9zM1015,57h9v1h-9zM1015,58h9v1h-9zM1015,59h9v1h-9zM1015,60h9v1h-9zM1015,61h9v1h-9zM1015,62h9v1h-9zM1015,63h9v1h-9zM1015,64h9v1h-9zM1015,65h9v1h-9zM1015,66h9v1h-9zM1015,67h9v1h-9zM1015,68h9v1h-9zM1015,69h9v1h-9zM1015,70h9v1h-9zM1015,71h9v1h-9zM1015,72h9v1h-9zM1015,73h9v1h-9zM1015,74h9v1h-9zM1015,75h9v1h-9zM433,76h19v1h-19zM1015,76h9v1h-9zM424,77h37v1h-37zM1015,77h9v1h-9zM420,78h46v1h-46zM1015,78h9v1h-9zM413,79h56v1h-56zM1015,79h9v1h-9zM408,80h65v1h-65zM1015,80h9v1h-9zM404,81h71v1h-71zM1015,81h9v1h-9zM400,82h77v1h-77zM1015,82h9v1h-9zM396,83h83v1h-83zM1015,83h9v1h-9zM394,84h87v1h-87zM1015,84h9v1h-9zM390,85h93v1h-93zM1015,85h9v1h-9zM387,86h97v1h-97zM1015,86h9v1h-9zM384,87h102v1h-102zM1015,87h9v1h-9zM381,88h106v1h-106zM1015,88h9v1h-9zM379,89h110v1h-110zM1015,89h9v1h-9zM377,90h113v1h-113zM1015,90h9v1h-9zM375,91h117v1h-117zM1015,91h9v1h-9zM373,92h120v1h-120zM1015,92h9v1h-9zM371,93h123v1h-123zM1015,93h9v1h-9zM369,94h127v1h-127zM1015,94h9v1h-9zM367,95h130v1h-130zM1015,95h9v1h-9zM365,96h133v1h-133zM1015,96h9v1h-9zM362,97h138v1h-138zM1015,97h9v1h-9zM360,98h141v1h-141zM1015,98h9v1h-9zM358,99h144v1h-144zM1015,99h9v1h-9zM356,100h147v1h-147zM1015,100h9v1h-9zM354,101h151v1h-151zM1015,101h9v1h-9zM352,102h154v1h-154zM1015,102h9v1h-9zM351,103h156v1h-156zM1015,103h9v1h-9zM350,104h158v1h-158zM1015,104h9v1h-9zM348,105h162v1h-162zM1015,105h9v1h-9zM347,106h164v1h-164zM1015,106h9v1h-9zM345,107h167v1h-167zM1015,107h9v1h-9zM344,108h169v1h-169zM1015,108h9v1h-9zM342,109h172v1h-172zM1015,109h9v1h-9zM341,110h174v1h-174zM1015,110h9v1h-9zM339,111h178v1h-178zM1015,111h9v1h-9zM338,112h180v1h-180zM1015,112h9v1h-9zM336,113h183v1h-183zM1015,113h9v1h-9zM335,114h185v1h-185zM1015,114h9v1h-9zM334,115h187v1h-187zM1015,115h9v1h-9zM333,116h190v1h-190zM1015,116h9v1h-9zM332,117h192v1h-192zM1015,117h9v1h-9zM331,118h194v1h-194zM1015,118h9v1h-9zM330,119h196v1h-196zM1015,119h9v1h-9zM329,120h198v1h-198zM1015,120h9v1h-9zM328,121h200v1h-200zM1015,121h9v1h-9zM327,122h202v1h-202zM1015,122h9v1h-9zM326,123h204v1h-204zM1015,123h9v1h-9zM325,124h206v1h-206zM1015,124h9v1h-9zM324,125h208v1h-208zM1015,125h9v1h-9zM323,126h210v1h-210zM1015,126h9v1h-9zM323,127h211v1h-211zM1015,127h9v1h-9zM322,128h213v1h-213zM1015,128h9v1h-9zM321,129h215v1h-215zM1015,129h9v1h-9zM320,130h217v1h-217zM1015,130h9v1h-9zM320,131h218v1h-218zM1015,131h9v1h-9zM319,132h220v1h-220zM1015,132h9v1h-9zM318,133h222v1h-222zM1015,133h9v1h-9zM318,134h223v1h-223zM1015,134h9v1h-9zM317,135h224v1h-224zM1015,135h9v1h-9zM316,136h226v1h-226zM1015,136h9v1h-9zM316,137h227v1h-227zM1015,137h9v1h-9zM315,138h229v1h-229zM1015,138h9v1h-9zM314,139h230v1h-230zM624,139h5v1h-5zM1015,139h9v1h-9zM314,140h231v1h-231zM621,140h10v1h-10zM1015,140h9v1h-9zM313,141h233v1h-233zM619,141h12v1h-12zM1015,141h9v1h-9zM313,142h234v1h-234zM617,142h15v1h-15zM1015,142h9v1h-9zM312,143h237v1h-237zM615,143h17v1h-17zM1015,143h9v1h-9zM312,144h239v1h-239zM614,144h18v1h-18zM1015,144h9v1h-9zM311,145h241v1h-241zM612,145h20v1h-20zM1015,145h9v1h-9zM311,146h241v1h-241zM611,146h20v1h-20zM1015,146h9v1h-9zM311,147h242v1h-242zM610,147h21v1h-21zM1015,147h9v1h-9zM311,148h242v1h-242zM608,148h23v1h-23zM1015,148h9v1h-9zM310,149h244v1h-244zM607,149h23v1h-23zM1015,149h9v1h-9zM310,150h244v1h-244zM605,150h25v1h-25zM1015,150h9v1h-9zM310,151h245v1h-245zM603,151h27v1h-27zM1015,151h9v1h-9zM309,152h247v1h-247zM601,152h28v1h-28zM1015,152h9v1h-9zM309,153h247v1h-247zM599,153h30v1h-30zM1015,153h9v1h-9zM309,154h248v1h-248zM596,154h32v1h-32zM1015,154h9v1h-9zM308,155h249v1h-249zM593,155h35v1h-35zM1015,155h9v1h-9zM308,156h250v1h-250zM589,156h38v1h-38zM1015,156h9v1h-9zM308,157h251v1h-251zM585,157h42v1h-42zM1015,157h9v1h-9zM308,158h251v1h-251zM582,158h44v1h-44zM1015,158h9v1h-9zM307,159h253v1h-253zM577,159h49v1h-49zM1015,159h9v1h-9zM307,160h254v1h-254zM571,160h54v1h-54zM1015,160h9v1h-9zM307,161h255v1h-255zM568,161h57v1h-57zM1015,161h9v1h-9zM306,162h318v1h-318zM1015,162h9v1h-9zM306,163h317v1h-317zM1015,163h9v1h-9zM306,164h317v1h-317zM1015,164h9v1h-9zM306,165h316v1h-316zM1015,165h9v1h-9zM306,166h315v1h-315zM1015,166h9v1h-9zM306,167h315v1h-315zM1015,167h9v1h-9zM306,168h314v1h-314zM1015,168h9v1h-9zM306,169h313v1h-313zM1015,169h9v1h-9zM305,170h313v1h-313zM1015,170h9v1h-9zM305,171h312v1h-312zM1015,171h9v1h-9zM305,172h312v1h-312zM1015,172h9v1h-9zM305,173h311v1h-311zM1015,173h9v1h-9zM305,174h310v1h-310zM1015,174h9v1h-9zM305,175h309v1h-309zM1015,175h9v1h-9zM305,176h308v1h-308zM1015,176h9v1h-9zM305,177h307v1h-307zM1015,177h9v1h-9zM305,178h306v1h-306zM1015,178h9v1h-9zM305,179h305v1h-305zM1015,179h9v1h-9zM305,180h304v1h-304zM1015,180h9v1h-9zM305,181h303v1h-303zM1015,181h9v1h-9zM305,182h302v1h-302zM1015,182h9v1h-9zM304,183h302v1h-302zM1015,183h9v1h-9zM304,184h301v1h-301zM1015,184h9v1h-9zM304,185h300v1h-300zM1015,185h9v1h-9zM304,186h300v1h-300zM1015,186h9v1h-9zM304,187h299v1h-299zM1015,187h9v1h-9zM304,188h298v1h-298zM1015,188h9v1h-9zM304,189h296v1h-296zM1015,189h9v1h-9zM304,190h295v1h-295zM1015,190h9v1h-9zM304,191h294v1h-294zM1015,191h9v1h-9zM304,192h293v1h-293zM1015,192h9v1h-9zM304,193h292v1h-292zM1015,193h9v1h-9zM304,194h291v1h-291zM1015,194h9v1h-9zM304,195h289v1h-289zM1015,195h9v1h-9zM304,196h288v1h-288zM1015,196h9v1h-9zM304,197h287v1h-287zM1015,197h9v1h-9zM303,198h286v1h-286zM1015,198h9v1h-9zM303,199h285v1h-285zM1015,199h9v1h-9zM303,200h283v1h-283zM1015,200h9v1h-9zM303,201h282v1h-282zM1015,201h9v1h-9zM303,202h280v1h-280zM1015,202h9v1h-9zM303,203h279v1h-279zM1015,203h9v1h-9zM303,204h277v1h-277zM1015,204h9v1h-9zM303,205h276v1h-276zM1015,205h9v1h-9zM303,206h274v1h-274zM1015,206h9v1h-9zM303,207h273v1h-273zM1015,207h9v1h-9zM303,208h272v1h-272zM1015,208h9v1h-9zM304,209h270v1h-270zM1015,209h9v1h-9zM304,210h270v1h-270zM1015,210h9v1h-9zM304,211h270v1h-270zM1015,211h9v1h-9zM304,212h270v1h-270zM1015,212h9v1h-9zM304,213h270v1h-270zM1015,213h9v1h-9zM304,214h270v1h-270zM1015,214h9v1h-9zM304,215h270v1h-270zM1015,215h9v1h-9zM304,216h270v1h-270zM1015,216h9v1h-9zM304,217h271v1h-271zM1015,217h9v1h-9zM304,218h271v1h-271zM1015,218h9v1h-9zM305,219h271v1h-271zM1015,219h9v1h-9zM305,220h271v1h-271zM1015,220h9v1h-9zM305,221h271v1h-271zM1015,221h9v1h-9zM305,222h271v1h-271zM1015,222h9v1h-9zM305,223h272v1h-272zM1015,223h9v1h-9zM305,224h272v1h-272zM1015,224h9v1h-9zM305,225h272v1h-272zM1015,225h9v1h-9zM306,226h271v1h-271zM1015,226h9v1h-9zM306,227h271v1h-271zM1015,227h9v1h-9zM306,228h272v1h-272zM1015,228h9v1h-9zM306,229h272v1h-272zM1015,229h9v1h-9zM307,230h271v1h-271zM1015,230h9v1h-9zM307,231h271v1h-271zM1015,231h9v1h-9zM307,232h271v1h-271zM1015,232h9v1h-9zM307,233h272v1h-272zM1015,233h9v1h-9zM307,234h273v1h-273zM1015,234h9v1h-9zM308,235h275v1h-275zM1015,235h9v1h-9zM308,236h276v1h-276zM1015,236h9v1h-9zM308,237h277v1h-277zM1015,237h9v1h-9zM308,238h277v1h-277zM1015,238h9v1h-9zM308,239h277v1h-277zM1015,239h9v1h-9zM308,240h277v1h-277zM1015,240h9v1h-9zM309,241h276v1h-276zM1015,241h9v1h-9zM309,242h277v1h-277zM1015,242h9v1h-9zM309,243h277v1h-277zM1015,243h9v1h-9zM309,244h277v1h-277zM1015,244h9v1h-9zM309,245h277v1h-277zM1015,245h9v1h-9zM309,246h277v1h-277zM1015,246h9v1h-9zM310,247h276v1h-276zM1015,247h9v1h-9zM310,248h276v1h-276zM1015,248h9v1h-9zM310,249h276v1h-276zM1015,249h9v1h-9zM310,250h276v1h-276zM1015,250h9v1h-9zM310,251h275v1h-275zM1015,251h9v1h-9zM311,252h274v1h-274zM1015,252h9v1h-9zM311,253h274v1h-274zM1015,253h9v1h-9zM311,254h274v1h-274zM1015,254h9v1h-9zM311,255h274v1h-274zM1015,255h9v1h-9zM311,256h274v1h-274zM1015,256h9v1h-9zM311,257h274v1h-274zM1015,257h9v1h-9zM311,258h274v1h-274zM1015,258h9v1h-9zM312,259h273v1h-273zM1015,259h9v1h-9zM312,260h273v1h-273zM1015,260h9v1h-9zM312,261h273v1h-273zM1015,261h9v1h-9zM312,262h273v1h-273zM1015,262h9v1h-9zM312,263h273v1h-273zM1015,263h9v1h-9zM312,264h273v1h-273zM1015,264h9v1h-9zM312,265h273v1h-273zM1015,265h9v1h-9zM313,266h272v1h-272zM1015,266h9v1h-9zM313,267h273v1h-273zM1015,267h9v1h-9zM313,268h273v1h-273zM1015,268h9v1h-9zM313,269h274v1h-274zM1015,269h9v1h-9zM313,270h275v1h-275zM1015,270h9v1h-9zM313,271h276v1h-276zM1015,271h9v1h-9zM314,272h276v1h-276zM1015,272h9v1h-9zM314,273h277v1h-277zM1015,273h9v1h-9zM314,274h278v1h-278zM1015,274h9v1h-9zM314,275h280v1h-280zM1015,275h9v1h-9zM314,276h281v1h-281zM1015,276h9v1h-9zM315,277h281v1h-281zM1015,277h9v1h-9zM315,278h282v1h-282zM1015,278h9v1h-9zM315,279h283v1h-283zM1015,279h9v1h-9zM316,280h283v1h-283zM1015,280h9v1h-9zM316,281h284v1h-284zM1015,281h9v1h-9zM317,282h285v1h-285zM1015,282h9v1h-9zM317,283h286v1h-286zM1015,283h9v1h-9zM317,284h287v1h-287zM1015,284h9v1h-9zM317,285h288v1h-288zM1015,285h9v1h-9zM317,286h289v1h-289zM1015,286h9v1h-9zM317,287h290v1h-290zM1015,287h9v1h-9zM317,288h291v1h-291zM1015,288h9v1h-9zM317,289h291v1h-291zM1015,289h9v1h-9zM317,290h292v1h-292zM1015,290h9v1h-9zM317,291h293v1h-293zM1015,291h9v1h-9zM317,292h293v1h-293zM1015,292h9v1h-9zM318,293h293v1h-293zM1015,293h9v1h-9zM318,294h293v1h-293zM1015,294h9v1h-9zM319,295h292v1h-292zM1015,295h9v1h-9zM319,296h292v1h-292zM1015,296h9v1h-9zM319,297h292v1h-292zM1015,297h9v1h-9zM320,298h291v1h-291zM1015,298h9v1h-9zM320,299h291v1h-291zM1015,299h9v1h-9zM320,300h290v1h-290zM1015,300h9v1h-9zM321,301h289v1h-289zM1015,301h9v1h-9zM321,302h288v1h-288zM1015,302h9v1h-9zM321,303h287v1h-287zM1015,303h9v1h-9zM322,304h285v1h-285zM1015,304h9v1h-9zM322,305h284v1h-284zM1015,305h9v1h-9zM322,306h283v1h-283zM1015,306h9v1h-9zM322,307h282v1h-282zM1015,307h9v1h-9zM323,308h279v1h-279zM1015,308h9v1h-9zM323,309h277v1h-277zM1015,309h9v1h-9zM323,310h276v1h-276zM1015,310h9v1h-9zM323,311h275v1h-275zM1015,311h9v1h-9zM323,312h275v1h-275zM1015,312h9v1h-9zM323,313h275v1h-275zM1015,313h9v1h-9zM323,314h275v1h-275zM1015,314h9v1h-9zM323,315h275v1h-275zM1015,315h9v1h-9zM322,316h276v1h-276zM1015,316h9v1h-9zM321,317h278v1h-278zM1015,317h9v1h-9zM320,318h280v1h-280zM1015,318h9v1h-9zM319,319h284v1h-284zM1015,319h9v1h-9zM317,320h289v1h-289zM1015,320h9v1h-9zM316,321h291v1h-291zM1015,321h9v1h-9zM314,322h294v1h-294zM1015,322h9v1h-9zM312,323h297v1h-297zM1015,323h9v1h-9zM311,324h298v1h-298zM1015,324h9v1h-9zM309,325h300v1h-300zM1015,325h9v1h-9zM307,326h303v1h-303zM1015,326h9v1h-9zM306,327h303v1h-303zM1015,327h9v1h-9zM304,328h305v1h-305zM1015,328h9v1h-9zM303,329h306v1h-306zM1015,329h9v1h-9zM301,330h308v1h-308zM1015,330h9v1h-9zM300,331h309v1h-309zM1015,331h9v1h-9zM298,332h310v1h-310zM1015,332h9v1h-9zM297,333h311v1h-311zM1015,333h9v1h-9zM296,334h311v1h-311zM1015,334h9v1h-9zM294,335h313v1h-313zM1015,335h9v1h-9zM293,336h313v1h-313zM1015,336h9v1h-9zM291,337h314v1h-314zM1015,337h9v1h-9zM290,338h314v1h-314zM1015,338h9v1h-9zM289,339h314v1h-314zM1015,339h9v1h-9zM288,340h314v1h-314zM1015,340h9v1h-9zM286,341h316v1h-316zM1015,341h9v1h-9zM285,342h316v1h-316zM1015,342h9v1h-9zM284,343h58v1h-58zM347,343h254v1h-254zM1015,343h9v1h-9zM283,344h57v1h-57zM349,344h251v1h-251zM1015,344h9v1h-9zM281,345h57v1h-57zM350,345h250v1h-250zM1015,345h9v1h-9zM280,346h56v1h-56zM351,346h249v1h-249zM1015,346h9v1h-9zM278,347h57v1h-57zM352,347h248v1h-248zM1015,347h9v1h-9zM276,348h57v1h-57zM353,348h247v1h-247zM1015,348h9v1h-9zM274,349h58v1h-58zM353,349h247v1h-247zM1015,349h9v1h-9zM273,350h57v1h-57zM354,350h246v1h-246zM1015,350h9v1h-9zM272,351h56v1h-56zM354,351h247v1h-247zM1015,351h9v1h-9zM271,352h56v1h-56zM354,352h247v1h-247zM1015,352h9v1h-9zM270,353h55v1h-55zM355,353h247v1h-247zM1015,353h9v1h-9zM270,354h53v1h-53zM355,354h248v1h-248zM1015,354h9v1h-9zM270,355h52v1h-52zM355,355h249v1h-249zM1015,355h9v1h-9zM271,356h49v1h-49zM356,356h249v1h-249zM1015,356h9v1h-9zM272,357h46v1h-46zM356,357h249v1h-249zM1015,357h9v1h-9zM273,358h43v1h-43zM357,358h249v1h-249zM1015,358h9v1h-9zM274,359h39v1h-39zM357,359h249v1h-249zM1015,359h9v1h-9zM276,360h35v1h-35zM358,360h249v1h-249zM1015,360h9v1h-9zM281,361h26v1h-26zM358,361h249v1h-249zM1015,361h9v1h-9zM294,362h6v1h-6zM359,362h248v1h-248zM1015,362h9v1h-9zM359,363h248v1h-248zM1015,363h9v1h-9zM360,364h247v1h-247zM1015,364h9v1h-9zM360,365h247v1h-247zM1015,365h9v1h-9zM361,366h246v1h-246zM1015,366h9v1h-9zM361,367h246v1h-246zM1015,367h9v1h-9zM361,368h247v1h-247zM1015,368h9v1h-9zM362,369h246v1h-246zM1015,369h9v1h-9zM363,370h245v1h-245zM1015,370h9v1h-9zM363,371h245v1h-245zM1015,371h9v1h-9zM364,372h243v1h-243zM1015,372h9v1h-9zM364,373h243v1h-243zM1015,373h9v1h-9zM365,374h241v1h-241zM1015,374h9v1h-9zM365,375h241v1h-241zM1015,375h9v1h-9zM365,376h240v1h-240zM1015,376h9v1h-9zM366,377h238v1h-238zM1015,377h9v1h-9zM366,378h237v1h-237zM1015,378h9v1h-9zM367,379h235v1h-235zM1015,379h9v1h-9zM367,380h235v1h-235zM1015,380h9v1h-9zM367,381h234v1h-234zM1015,381h9v1h-9zM367,382h234v1h-234zM1015,382h9v1h-9zM367,383h233v1h-233zM1015,383h9v1h-9zM367,384h233v1h-233zM1015,384h9v1h-9zM367,385h233v1h-233zM1015,385h9v1h-9zM367,386h233v1h-233zM1015,386h9v1h-9zM367,387h233v1h-233zM1015,387h9v1h-9zM367,388h233v1h-233zM1015,388h9v1h-9zM366,389h234v1h-234zM1015,389h9v1h-9zM366,390h234v1h-234zM1015,390h9v1h-9zM365,391h236v1h-236zM1015,391h9v1h-9zM364,392h237v1h-237zM1015,392h9v1h-9zM363,393h238v1h-238zM1015,393h9v1h-9zM362,394h240v1h-240zM1015,394h9v1h-9zM362,395h241v1h-241zM1015,395h9v1h-9zM362,396h242v1h-242zM1015,396h9v1h-9zM362,397h242v1h-242zM1015,397h9v1h-9zM361,398h244v1h-244zM1015,398h9v1h-9zM361,399h244v1h-244zM1015,399h9v1h-9zM361,400h244v1h-244zM1015,400h9v1h-9zM361,401h245v1h-245zM1015,401h9v1h-9zM361,402h245v1h-245zM1015,402h9v1h-9zM360,403h246v1h-246zM1015,403h9v1h-9zM359,404h248v1h-248zM1015,404h9v1h-9zM355,405h252v1h-252zM1015,405h9v1h-9zM353,406h254v1h-254zM1015,406h9v1h-9zM352,407h255v1h-255zM1015,407h9v1h-9zM352,408h255v1h-255zM1015,408h9v1h-9zM351,409h256v1h-256zM1015,409h9v1h-9zM351,410h255v1h-255zM1015,410h9v1h-9zM350,411h256v1h-256zM1015,411h9v1h-9zM350,412h256v1h-256zM1015,412h9v1h-9zM350,413h256v1h-256zM1015,413h9v1h-9zM350,414h256v1h-256zM1015,414h9v1h-9zM350,415h256v1h-256zM1015,415h9v1h-9zM349,416h257v1h-257zM1015,416h9v1h-9zM349,417h257v1h-257zM1015,417h9v1h-9zM349,418h257v1h-257zM1015,418h9v1h-9zM349,419h257v1h-257zM1015,419h9v1h-9zM349,420h257v1h-257zM1015,420h9v1h-9zM348,421h257v1h-257zM1015,421h9v1h-9zM348,422h257v1h-257zM1015,422h9v1h-9zM348,423h257v1h-257zM1015,423h9v1h-9zM348,424h257v1h-257zM1015,424h9v1h-9zM347,425h258v1h-258zM1015,425h9v1h-9zM347,426h258v1h-258zM1015,426h9v1h-9zM347,427h258v1h-258zM1015,427h9v1h-9zM347,428h258v1h-258zM1015,428h9v1h-9zM346,429h188v1h-188zM551,429h54v1h-54zM1015,429h9v1h-9zM346,430h175v1h-175zM555,430h49v1h-49zM1015,430h9v1h-9zM346,431h174v1h-174zM557,431h46v1h-46zM1015,431h9v1h-9zM346,432h172v1h-172zM561,432h40v1h-40zM1015,432h9v1h-9zM345,433h173v1h-173zM563,433h36v1h-36zM1015,433h9v1h-9zM345,434h172v1h-172zM565,434h31v1h-31zM1015,434h9v1h-9zM345,435h171v1h-171zM567,435h28v1h-28zM1015,435h9v1h-9zM345,436h170v1h-170zM569,436h6v1h-6zM582,436h12v1h-12zM1015,436h9v1h-9zM344,437h170v1h-170zM587,437h6v1h-6zM1015,437h9v1h-9zM344,438h169v1h-169zM589,438h3v1h-3zM1015,438h9v1h-9zM344,439h168v1h-168zM1015,439h9v1h-9zM344,440h167v1h-167zM1015,440h9v1h-9zM343,441h167v1h-167zM1015,441h9v1h-9zM343,442h167v1h-167zM1015,442h9v1h-9zM343,443h166v1h-166zM1015,443h9v1h-9zM343,444h166v1h-166zM1015,444h9v1h-9zM343,445h165v1h-165zM1015,445h9v1h-9zM343,446h165v1h-165zM1015,446h9v1h-9zM343,447h165v1h-165zM1015,447h9v1h-9zM343,448h164v1h-164zM1015,448h9v1h-9zM343,449h164v1h-164zM1015,449h9v1h-9zM343,450h163v1h-163zM1015,450h9v1h-9zM343,451h163v1h-163zM1015,451h9v1h-9zM343,452h163v1h-163zM1015,452h9v1h-9zM343,453h163v1h-163zM1015,453h9v1h-9zM343,454h163v1h-163zM1015,454h9v1h-9zM342,455h164v1h-164zM1015,455h9v1h-9zM342,456h164v1h-164zM1015,456h9v1h-9zM341,457h165v1h-165zM1015,457h9v1h-9zM341,458h165v1h-165zM1015,458h9v1h-9zM340,459h167v1h-167zM1015,459h9v1h-9zM340,460h167v1h-167zM1015,460h9v1h-9zM340,461h168v1h-168zM1015,461h9v1h-9zM339,462h169v1h-169zM1015,462h9v1h-9zM339,463h170v1h-170zM1015,463h9v1h-9zM339,464h170v1h-170zM1015,464h9v1h-9zM338,465h44v1h-44zM393,465h117v1h-117zM1015,465h9v1h-9zM338,466h42v1h-42zM395,466h115v1h-115zM1015,466h9v1h-9zM337,467h42v1h-42zM395,467h116v1h-116zM1015,467h9v1h-9zM337,468h42v1h-42zM396,468h115v1h-115zM1015,468h9v1h-9zM336,469h42v1h-42zM396,469h116v1h-116zM1015,469h9v1h-9zM336,470h42v1h-42zM396,470h116v1h-116zM1015,470h9v1h-9zM335,471h43v1h-43zM397,471h116v1h-116zM1015,471h9v1h-9zM334,472h44v1h-44zM398,472h115v1h-115zM1015,472h9v1h-9zM334,473h37v1h-37zM374,473h3v1h-3zM402,473h112v1h-112zM1015,473h9v1h-9zM333,474h37v1h-37zM403,474h111v1h-111zM1015,474h9v1h-9zM332,475h37v1h-37zM404,475h110v1h-110zM1015,475h9v1h-9zM332,476h37v1h-37zM404,476h111v1h-111zM1015,476h9v1h-9zM331,477h37v1h-37zM405,477h110v1h-110zM1015,477h9v1h-9zM331,478h37v1h-37zM406,478h110v1h-110zM1015,478h9v1h-9zM330,479h37v1h-37zM408,479h108v1h-108zM1015,479h9v1h-9zM330,480h36v1h-36zM409,480h108v1h-108zM1015,480h9v1h-9zM329,481h36v1h-36zM411,481h106v1h-106zM1015,481h9v1h-9zM329,482h35v1h-35zM411,482h106v1h-106zM1015,482h9v1h-9zM328,483h36v1h-36zM413,483h104v1h-104zM1015,483h9v1h-9zM328,484h36v1h-36zM414,484h103v1h-103zM1015,484h9v1h-9zM327,485h37v1h-37zM415,485h102v1h-102zM1015,485h9v1h-9zM327,486h37v1h-37zM416,486h101v1h-101zM1015,486h9v1h-9zM326,487h39v1h-39zM417,487h100v1h-100zM1015,487h9v1h-9zM326,488h39v1h-39zM418,488h99v1h-99zM1015,488h9v1h-9zM325,489h41v1h-41zM419,489h98v1h-98zM1015,489h9v1h-9zM324,490h43v1h-43zM421,490h96v1h-96zM1015,490h9v1h-9zM323,491h45v1h-45zM371,491h1v1h-1zM422,491h95v1h-95zM1015,491h9v1h-9zM322,492h51v1h-51zM423,492h94v1h-94zM1015,492h9v1h-9zM321,493h53v1h-53zM424,493h93v1h-93zM1015,493h9v1h-9zM321,494h53v1h-53zM425,494h92v1h-92zM1015,494h9v1h-9zM320,495h54v1h-54zM426,495h91v1h-91zM1015,495h9v1h-9zM319,496h55v1h-55zM427,496h91v1h-91zM1015,496h9v1h-9zM318,497h56v1h-56zM427,497h91v1h-91zM1015,497h9v1h-9zM318,498h56v1h-56zM428,498h90v1h-90zM1015,498h9v1h-9zM317,499h56v1h-56zM429,499h89v1h-89zM1015,499h9v1h-9zM316,500h56v1h-56zM430,500h88v1h-88zM1015,500h9v1h-9zM316,501h47v1h-47zM431,501h88v1h-88zM1015,501h9v1h-9zM315,502h46v1h-46zM432,502h87v1h-87zM1015,502h9v1h-9zM314,503h46v1h-46zM433,503h86v1h-86zM1015,503h9v1h-9zM314,504h44v1h-44zM434,504h86v1h-86zM1015,504h9v1h-9zM313,505h40v1h-40zM435,505h85v1h-85zM1015,505h9v1h-9zM313,506h36v1h-36zM436,506h84v1h-84zM1015,506h9v1h-9zM312,507h34v1h-34zM437,507h83v1h-83zM1015,507h9v1h-9zM312,508h29v1h-29zM438,508h82v1h-82zM1015,508h9v1h-9zM311,509h29v1h-29zM439,509h81v1h-81zM1015,509h9v1h-9zM311,510h28v1h-28zM440,510h80v1h-80zM1015,510h9v1h-9zM310,511h28v1h-28zM441,511h79v1h-79zM1015,511h9v1h-9zM310,512h27v1h-27zM442,512h78v1h-78zM1015,512h9v1h-9zM309,513h27v1h-27zM443,513h77v1h-77zM1015,513h9v1h-9zM309,514h26v1h-26zM443,514h77v1h-77zM1015,514h9v1h-9zM309,515h24v1h-24zM444,515h77v1h-77zM1015,515h9v1h-9zM308,516h23v1h-23zM445,516h76v1h-76zM1015,516h9v1h-9zM308,517h23v1h-23zM446,517h76v1h-76zM1015,517h9v1h-9zM307,518h23v1h-23zM447,518h75v1h-75zM1015,518h9v1h-9zM307,519h23v1h-23zM448,519h75v1h-75zM1015,519h9v1h-9zM306,520h24v1h-24zM448,520h76v1h-76zM1015,520h9v1h-9zM306,521h24v1h-24zM449,521h76v1h-76zM1015,521h9v1h-9zM306,522h25v1h-25zM450,522h75v1h-75zM1015,522h9v1h-9zM305,523h27v1h-27zM342,523h3v1h-3zM451,523h75v1h-75zM1015,523h9v1h-9zM305,524h42v1h-42zM452,524h75v1h-75zM1015,524h9v1h-9zM305,525h43v1h-43zM453,525h75v1h-75zM1015,525h9v1h-9zM304,526h44v1h-44zM454,526h74v1h-74zM1015,526h9v1h-9zM304,527h45v1h-45zM454,527h75v1h-75zM1015,527h9v1h-9zM304,528h45v1h-45zM455,528h75v1h-75zM1015,528h9v1h-9zM303,529h47v1h-47zM457,529h74v1h-74zM1015,529h9v1h-9zM303,530h47v1h-47zM460,530h71v1h-71zM1015,530h9v1h-9zM303,531h47v1h-47zM462,531h70v1h-70zM1015,531h9v1h-9zM302,532h48v1h-48zM464,532h69v1h-69zM1015,532h9v1h-9zM302,533h48v1h-48zM465,533h68v1h-68zM1015,533h9v1h-9zM301,534h50v1h-50zM466,534h68v1h-68zM1015,534h9v1h-9zM301,535h51v1h-51zM467,535h68v1h-68zM1015,535h9v1h-9zM301,536h53v1h-53zM468,536h67v1h-67zM1015,536h9v1h-9zM300,537h55v1h-55zM469,537h67v1h-67zM1015,537h9v1h-9zM300,538h56v1h-56zM469,538h67v1h-67zM1015,538h9v1h-9zM300,539h55v1h-55zM470,539h7v1h-7zM482,539h55v1h-55zM1015,539h9v1h-9zM299,540h56v1h-56zM470,540h6v1h-6zM483,540h55v1h-55zM1015,540h9v1h-9zM299,541h55v1h-55zM471,541h4v1h-4zM484,541h54v1h-54zM1015,541h9v1h-9zM298,542h56v1h-56zM471,542h4v1h-4zM485,542h54v1h-54zM1015,542h9v1h-9zM298,543h55v1h-55zM471,543h4v1h-4zM485,543h54v1h-54zM1015,543h9v1h-9zM298,544h54v1h-54zM472,544h3v1h-3zM486,544h54v1h-54zM1015,544h9v1h-9zM297,545h54v1h-54zM405,545h2v1h-2zM472,545h3v1h-3zM486,545h55v1h-55zM1015,545h9v1h-9zM297,546h54v1h-54zM394,546h16v1h-16zM472,546h4v1h-4zM486,546h55v1h-55zM1015,546h9v1h-9zM297,547h53v1h-53zM363,547h4v1h-4zM390,547h26v1h-26zM472,547h4v1h-4zM486,547h56v1h-56zM1015,547h9v1h-9zM296,548h53v1h-53zM362,548h5v1h-5zM387,548h32v1h-32zM473,548h4v1h-4zM485,548h58v1h-58zM1015,548h9v1h-9zM296,549h53v1h-53zM360,549h7v1h-7zM384,549h36v1h-36zM473,549h6v1h-6zM484,549h59v1h-59zM1015,549h9v1h-9zM295,550h54v1h-54zM358,550h9v1h-9zM382,550h39v1h-39zM474,550h70v1h-70zM1015,550h9v1h-9zM295,551h55v1h-55zM356,551h11v1h-11zM380,551h42v1h-42zM475,551h69v1h-69zM1015,551h9v1h-9zM295,552h55v1h-55zM356,552h12v1h-12zM376,552h49v1h-49zM476,552h69v1h-69zM1015,552h9v1h-9zM294,553h57v1h-57zM357,553h12v1h-12zM373,553h54v1h-54zM477,553h69v1h-69zM1015,553h9v1h-9zM294,554h57v1h-57zM358,554h70v1h-70zM477,554h69v1h-69zM1015,554h9v1h-9zM294,555h58v1h-58zM358,555h72v1h-72zM454,555h7v1h-7zM478,555h69v1h-69zM1015,555h9v1h-9zM293,556h57v1h-57zM359,556h84v1h-84zM452,556h12v1h-12zM479,556h69v1h-69zM1015,556h9v1h-9zM293,557h56v1h-56zM359,557h86v1h-86zM450,557h15v1h-15zM480,557h68v1h-68zM1015,557h9v1h-9zM293,558h55v1h-55zM359,558h108v1h-108zM480,558h69v1h-69zM1015,558h9v1h-9zM292,559h55v1h-55zM359,559h109v1h-109zM481,559h68v1h-68zM1015,559h9v1h-9zM292,560h54v1h-54zM358,560h111v1h-111zM482,560h13v1h-13zM499,560h51v1h-51zM1015,560h9v1h-9zM292,561h54v1h-54zM357,561h114v1h-114zM483,561h11v1h-11zM500,561h51v1h-51zM1015,561h9v1h-9zM291,562h55v1h-55zM355,562h117v1h-117zM484,562h9v1h-9zM501,562h50v1h-50zM1015,562h9v1h-9zM291,563h56v1h-56zM353,563h120v1h-120zM485,563h8v1h-8zM502,563h50v1h-50zM1015,563h9v1h-9zM291,564h57v1h-57zM351,564h123v1h-123zM485,564h8v1h-8zM503,564h49v1h-49zM1015,564h9v1h-9zM290,565h185v1h-185zM486,565h7v1h-7zM504,565h49v1h-49zM1015,565h9v1h-9zM290,566h186v1h-186zM486,566h7v1h-7zM505,566h49v1h-49zM1015,566h9v1h-9zM290,567h186v1h-186zM486,567h8v1h-8zM506,567h48v1h-48zM1015,567h9v1h-9zM289,568h188v1h-188zM486,568h8v1h-8zM506,568h49v1h-49zM1015,568h9v1h-9zM289,569h188v1h-188zM486,569h9v1h-9zM507,569h49v1h-49zM1015,569h9v1h-9zM288,570h190v1h-190zM485,570h11v1h-11zM508,570h48v1h-48zM1015,570h9v1h-9zM288,571h192v1h-192zM484,571h13v1h-13zM508,571h49v1h-49zM1015,571h9v1h-9zM288,572h210v1h-210zM509,572h48v1h-48zM1015,572h9v1h-9zM287,573h212v1h-212zM509,573h49v1h-49zM1015,573h9v1h-9zM287,574h212v1h-212zM510,574h49v1h-49zM1015,574h9v1h-9zM287,575h213v1h-213zM512,575h47v1h-47zM1015,575h9v1h-9zM286,576h216v1h-216zM513,576h47v1h-47zM1015,576h9v1h-9zM286,577h217v1h-217zM514,577h46v1h-46zM1015,577h9v1h-9zM286,578h217v1h-217zM515,578h46v1h-46zM1015,578h9v1h-9zM285,579h219v1h-219zM516,579h45v1h-45zM1015,579h9v1h-9zM285,580h220v1h-220zM517,580h45v1h-45zM1015,580h9v1h-9zM285,581h220v1h-220zM518,581h45v1h-45zM1015,581h9v1h-9zM284,582h222v1h-222zM518,582h45v1h-45zM1015,582h9v1h-9zM284,583h223v1h-223zM520,583h44v1h-44zM1015,583h9v1h-9zM284,584h223v1h-223zM521,584h43v1h-43zM1015,584h9v1h-9zM284,585h224v1h-224zM522,585h43v1h-43zM1015,585h9v1h-9zM283,586h226v1h-226zM523,586h43v1h-43zM1015,586h9v1h-9zM283,587h227v1h-227zM524,587h42v1h-42zM1015,587h9v1h-9zM283,588h228v1h-228zM525,588h42v1h-42zM1015,588h9v1h-9zM282,589h229v1h-229zM525,589h42v1h-42zM1015,589h9v1h-9zM282,590h230v1h-230zM526,590h42v1h-42zM1015,590h9v1h-9zM282,591h231v1h-231zM526,591h43v1h-43zM1015,591h9v1h-9zM282,592h232v1h-232zM527,592h42v1h-42zM1015,592h9v1h-9zM281,593h234v1h-234zM528,593h42v1h-42zM1015,593h9v1h-9zM281,594h235v1h-235zM532,594h38v1h-38zM1015,594h9v1h-9zM281,595h235v1h-235zM533,595h38v1h-38zM1015,595h9v1h-9zM281,596h236v1h-236zM535,596h37v1h-37zM1015,596h9v1h-9zM280,597h238v1h-238zM535,597h37v1h-37zM1015,597h9v1h-9zM280,598h239v1h-239zM536,598h37v1h-37zM1015,598h9v1h-9zM280,599h240v1h-240zM537,599h36v1h-36zM1015,599h9v1h-9zM280,600h241v1h-241zM537,600h37v1h-37zM1015,600h9v1h-9zM280,601h242v1h-242zM538,601h36v1h-36zM1015,601h9v1h-9zM279,602h243v1h-243zM538,602h37v1h-37zM1015,602h9v1h-9zM279,603h244v1h-244zM539,603h37v1h-37zM1015,603h9v1h-9zM279,604h245v1h-245zM540,604h36v1h-36zM1015,604h9v1h-9zM279,605h246v1h-246zM541,605h36v1h-36zM1015,605h9v1h-9zM279,606h247v1h-247zM542,606h36v1h-36zM1015,606h9v1h-9zM278,607h248v1h-248zM543,607h35v1h-35zM1015,607h9v1h-9zM278,608h249v1h-249zM543,608h36v1h-36zM1015,608h9v1h-9zM278,609h250v1h-250zM544,609h36v1h-36zM1015,609h9v1h-9zM278,610h251v1h-251zM544,610h36v1h-36zM1015,610h9v1h-9zM277,611h240v1h-240zM521,611h9v1h-9zM545,611h36v1h-36zM1015,611h9v1h-9zM277,612h239v1h-239zM523,612h8v1h-8zM546,612h35v1h-35zM1015,612h9v1h-9zM277,613h238v1h-238zM524,613h8v1h-8zM547,613h35v1h-35zM1015,613h9v1h-9zM277,614h238v1h-238zM525,614h8v1h-8zM548,614h35v1h-35zM1015,614h9v1h-9zM276,615h239v1h-239zM526,615h8v1h-8zM550,615h33v1h-33zM1015,615h9v1h-9zM276,616h239v1h-239zM527,616h7v1h-7zM551,616h33v1h-33zM1015,616h9v1h-9zM276,617h239v1h-239zM528,617h7v1h-7zM552,617h32v1h-32zM1015,617h9v1h-9zM276,618h240v1h-240zM529,618h7v1h-7zM553,618h32v1h-32zM1015,618h9v1h-9zM276,619h241v1h-241zM530,619h7v1h-7zM553,619h33v1h-33zM1015,619h9v1h-9zM275,620h242v1h-242zM531,620h7v1h-7zM554,620h32v1h-32zM1015,620h9v1h-9zM275,621h243v1h-243zM532,621h6v1h-6zM554,621h33v1h-33zM1015,621h9v1h-9zM274,622h244v1h-244zM533,622h6v1h-6zM555,622h32v1h-32zM1015,622h9v1h-9zM274,623h245v1h-245zM534,623h6v1h-6zM556,623h32v1h-32zM1015,623h9v1h-9zM273,624h246v1h-246zM535,624h6v1h-6zM557,624h32v1h-32zM1015,624h9v1h-9zM273,625h247v1h-247zM536,625h6v1h-6zM558,625h31v1h-31zM1015,625h9v1h-9zM272,626h249v1h-249zM537,626h5v1h-5zM559,626h31v1h-31zM1015,626h9v1h-9zM272,627h249v1h-249zM538,627h5v1h-5zM560,627h31v1h-31zM1015,627h9v1h-9zM271,628h251v1h-251zM539,628h5v1h-5zM561,628h30v1h-30zM1015,628h9v1h-9zM271,629h252v1h-252zM540,629h5v1h-5zM561,629h31v1h-31zM1015,629h9v1h-9zM270,630h253v1h-253zM541,630h5v1h-5zM562,630h30v1h-30zM1015,630h9v1h-9zM270,631h254v1h-254zM542,631h4v1h-4zM563,631h30v1h-30zM1015,631h9v1h-9zM269,632h256v1h-256zM543,632h4v1h-4zM564,632h29v1h-29zM1015,632h9v1h-9zM269,633h257v1h-257zM544,633h4v1h-4zM566,633h28v1h-28zM1015,633h9v1h-9zM269,634h257v1h-257zM545,634h4v1h-4zM567,634h28v1h-28zM1015,634h9v1h-9zM268,635h259v1h-259zM546,635h4v1h-4zM568,635h27v1h-27zM1015,635h9v1h-9zM268,636h260v1h-260zM547,636h4v1h-4zM568,636h28v1h-28zM1015,636h9v1h-9zM268,637h260v1h-260zM548,637h4v1h-4zM569,637h27v1h-27zM1015,637h9v1h-9zM268,638h260v1h-260zM548,638h5v1h-5zM570,638h27v1h-27zM1015,638h9v1h-9zM267,639h262v1h-262zM549,639h4v1h-4zM570,639h27v1h-27zM1015,639h9v1h-9zM267,640h262v1h-262zM550,640h4v1h-4zM571,640h27v1h-27zM1015,640h9v1h-9zM267,641h263v1h-263zM551,641h4v1h-4zM571,641h28v1h-28zM1015,641h9v1h-9zM267,642h264v1h-264zM552,642h4v1h-4zM572,642h27v1h-27zM1015,642h9v1h-9zM266,643h266v1h-266zM553,643h4v1h-4zM573,643h27v1h-27zM1015,643h9v1h-9zM266,644h267v1h-267zM554,644h4v1h-4zM573,644h27v1h-27zM1015,644h9v1h-9zM266,645h268v1h-268zM554,645h5v1h-5zM574,645h27v1h-27zM1015,645h9v1h-9zM266,646h269v1h-269zM555,646h4v1h-4zM576,646h25v1h-25zM1015,646h9v1h-9zM266,647h270v1h-270zM556,647h4v1h-4zM577,647h25v1h-25zM1015,647h9v1h-9zM265,648h272v1h-272zM557,648h4v1h-4zM578,648h24v1h-24zM1015,648h9v1h-9zM265,649h273v1h-273zM558,649h4v1h-4zM578,649h25v1h-25zM1015,649h9v1h-9zM265,650h273v1h-273zM558,650h5v1h-5zM578,650h25v1h-25zM1015,650h9v1h-9zM265,651h274v1h-274zM559,651h5v1h-5zM579,651h25v1h-25zM1015,651h9v1h-9zM265,652h275v1h-275zM560,652h4v1h-4zM580,652h24v1h-24zM1015,652h9v1h-9zM265,653h276v1h-276zM561,653h4v1h-4zM582,653h23v1h-23zM1015,653h9v1h-9zM265,654h276v1h-276zM561,654h5v1h-5zM584,654h22v1h-22zM1015,654h9v1h-9zM265,655h276v1h-276zM562,655h5v1h-5zM586,655h20v1h-20zM1015,655h9v1h-9zM265,656h277v1h-277zM563,656h5v1h-5zM587,656h20v1h-20zM1015,656h9v1h-9zM265,657h278v1h-278zM563,657h6v1h-6zM588,657h19v1h-19zM1015,657h9v1h-9zM265,658h279v1h-279zM564,658h6v1h-6zM589,658h19v1h-19zM1015,658h9v1h-9zM265,659h280v1h-280zM564,659h6v1h-6zM590,659h18v1h-18zM1015,659h9v1h-9zM265,660h281v1h-281zM564,660h7v1h-7zM590,660h19v1h-19zM1015,660h9v1h-9zM264,661h283v1h-283zM564,661h8v1h-8zM591,661h18v1h-18zM1015,661h9v1h-9zM264,662h284v1h-284zM563,662h10v1h-10zM591,662h19v1h-19zM1015,662h9v1h-9zM264,663h285v1h-285zM562,663h12v1h-12zM592,663h18v1h-18zM1015,663h9v1h-9zM264,664h287v1h-287zM557,664h18v1h-18zM593,664h18v1h-18zM1015,664h9v1h-9zM264,665h312v1h-312zM594,665h17v1h-17zM1015,665h9v1h-9zM264,666h313v1h-313zM594,666h18v1h-18zM1015,666h9v1h-9zM264,667h313v1h-313zM595,667h17v1h-17zM1015,667h9v1h-9zM264,668h314v1h-314zM596,668h17v1h-17zM1015,668h9v1h-9zM264,669h315v1h-315zM596,669h17v1h-17zM1015,669h9v1h-9zM264,670h316v1h-316zM597,670h17v1h-17zM1015,670h9v1h-9zM265,671h316v1h-316zM598,671h16v1h-16zM1015,671h9v1h-9zM265,672h317v1h-317zM599,672h16v1h-16zM1015,672h9v1h-9zM265,673h317v1h-317zM599,673h16v1h-16zM1015,673h9v1h-9zM265,674h318v1h-318zM600,674h16v1h-16zM1015,674h9v1h-9zM265,675h319v1h-319zM601,675h15v1h-15zM1015,675h9v1h-9zM265,676h320v1h-320zM602,676h15v1h-15zM1015,676h9v1h-9zM265,677h321v1h-321zM604,677h13v1h-13zM1015,677h9v1h-9zM265,678h322v1h-322zM605,678h13v1h-13zM1015,678h9v1h-9zM265,679h322v1h-322zM605,679h13v1h-13zM1015,679h9v1h-9zM265,680h323v1h-323zM606,680h13v1h-13zM1015,680h9v1h-9zM265,681h324v1h-324zM606,681h13v1h-13zM1015,681h9v1h-9zM265,682h325v1h-325zM606,682h14v1h-14zM1015,682h9v1h-9zM265,683h325v1h-325zM606,683h14v1h-14zM1015,683h9v1h-9zM265,684h326v1h-326zM606,684h15v1h-15zM1015,684h9v1h-9zM265,685h327v1h-327zM606,685h15v1h-15zM1015,685h9v1h-9zM266,686h327v1h-327zM606,686h16v1h-16zM1015,686h9v1h-9zM266,687h328v1h-328zM606,687h16v1h-16zM1015,687h9v1h-9zM266,688h328v1h-328zM606,688h16v1h-16zM1015,688h9v1h-9zM266,689h329v1h-329zM606,689h17v1h-17zM1015,689h9v1h-9zM266,690h330v1h-330zM606,690h17v1h-17zM1015,690h9v1h-9zM266,691h331v1h-331zM606,691h18v1h-18zM1015,691h9v1h-9zM266,692h331v1h-331zM606,692h18v1h-18zM1015,692h9v1h-9zM266,693h332v1h-332zM605,693h20v1h-20zM1015,693h9v1h-9zM266,694h334v1h-334zM604,694h21v1h-21zM1015,694h9v1h-9zM267,695h359v1h-359zM1015,695h9v1h-9zM267,696h359v1h-359zM1015,696h9v1h-9zM267,697h360v1h-360zM1015,697h9v1h-9zM267,698h360v1h-360zM1015,698h9v1h-9zM267,699h360v1h-360zM1015,699h9v1h-9zM267,700h361v1h-361zM1015,700h9v1h-9zM267,701h361v1h-361zM1015,701h9v1h-9zM267,702h362v1h-362zM1015,702h9v1h-9zM268,703h361v1h-361zM1015,703h9v1h-9zM268,704h362v1h-362zM1015,704h9v1h-9zM268,705h362v1h-362zM1015,705h9v1h-9zM268,706h362v1h-362zM1015,706h9v1h-9zM268,707h363v1h-363zM1015,707h9v1h-9zM268,708h363v1h-363zM1015,708h9v1h-9zM268,709h364v1h-364zM1015,709h9v1h-9zM269,710h363v1h-363zM1015,710h9v1h-9zM269,711h364v1h-364zM1015,711h9v1h-9zM269,712h364v1h-364zM1015,712h9v1h-9zM269,713h364v1h-364zM1015,713h9v1h-9zM269,714h365v1h-365zM1015,714h9v1h-9zM269,715h365v1h-365zM1015,715h9v1h-9zM269,716h366v1h-366zM1015,716h9v1h-9zM270,717h365v1h-365zM1015,717h9v1h-9zM270,718h366v1h-366zM1015,718h9v1h-9zM270,719h366v1h-366zM1015,719h9v1h-9zM270,720h366v1h-366zM1015,720h9v1h-9zM270,721h367v1h-367zM1015,721h9v1h-9zM270,722h367v1h-367zM1015,722h9v1h-9zM270,723h368v1h-368zM1015,723h9v1h-9zM271,724h367v1h-367zM1015,724h9v1h-9zM271,725h367v1h-367zM1015,725h9v1h-9zM271,726h368v1h-368zM1015,726h9v1h-9zM271,727h368v1h-368zM1015,727h9v1h-9zM271,728h369v1h-369zM1015,728h9v1h-9zM271,729h369v1h-369zM1015,729h9v1h-9zM272,730h368v1h-368zM1015,730h9v1h-9zM272,731h369v1h-369zM1015,731h9v1h-9zM272,732h369v1h-369zM1015,732h9v1h-9zM272,733h370v1h-370zM1015,733h9v1h-9zM272,734h370v1h-370zM1015,734h9v1h-9zM272,735h371v1h-371zM1015,735h9v1h-9zM273,736h370v1h-370zM1015,736h9v1h-9zM273,737h371v1h-371zM1015,737h9v1h-9zM273,738h371v1h-371zM1015,738h9v1h-9zM273,739h371v1h-371zM1015,739h9v1h-9zM273,740h372v1h-372zM1015,740h9v1h-9zM273,741h372v1h-372zM1015,741h9v1h-9zM274,742h371v1h-371zM1015,742h9v1h-9zM274,743h372v1h-372zM1015,743h9v1h-9zM274,744h372v1h-372zM1015,744h9v1h-9zM274,745h373v1h-373zM1015,745h9v1h-9zM274,746h373v1h-373zM1015,746h9v1h-9zM275,747h372v1h-372zM1015,747h9v1h-9zM275,748h373v1h-373zM1015,748h9v1h-9zM275,749h373v1h-373zM1015,749h9v1h-9zM275,750h374v1h-374zM1015,750h9v1h-9zM275,751h374v1h-374zM1015,751h9v1h-9zM276,752h373v1h-373zM1015,752h9v1h-9zM276,753h374v1h-374zM1015,753h9v1h-9zM276,754h374v1h-374zM1015,754h9v1h-9zM276,755h374v1h-374zM1015,755h9v1h-9zM276,756h375v1h-375zM1015,756h9v1h-9zM277,757h374v1h-374zM1015,757h9v1h-9zM277,758h375v1h-375zM1015,758h9v1h-9zM277,759h375v1h-375zM1015,759h9v1h-9zM277,760h375v1h-375zM1015,760h9v1h-9zM277,761h376v1h-376zM1015,761h9v1h-9zM278,762h375v1h-375zM1015,762h9v1h-9zM278,763h376v1h-376zM1015,763h9v1h-9zM278,764h376v1h-376zM1015,764h9v1h-9zM278,765h376v1h-376zM1015,765h9v1h-9zM278,766h377v1h-377zM1015,766h9v1h-9zM279,767h376v1h-376zM1015,767h9v1h-9zM279,768h376v1h-376zM1015,768h9v1h-9zM279,769h377v1h-377zM1015,769h9v1h-9zM279,770h377v1h-377zM1015,770h9v1h-9zM280,771h376v1h-376zM1015,771h9v1h-9zM280,772h377v1h-377zM1015,772h9v1h-9zM280,773h377v1h-377zM1015,773h9v1h-9zM280,774h378v1h-378zM1015,774h9v1h-9zM281,775h377v1h-377zM1015,775h9v1h-9zM281,776h377v1h-377zM1015,776h9v1h-9zM281,777h378v1h-378zM1015,777h9v1h-9zM281,778h378v1h-378zM1015,778h9v1h-9zM282,779h377v1h-377zM1015,779h9v1h-9zM282,780h378v1h-378zM1015,780h9v1h-9zM282,781h378v1h-378zM1015,781h9v1h-9zM282,782h379v1h-379zM1015,782h9v1h-9zM282,783h379v1h-379zM1015,783h9v1h-9zM283,784h378v1h-378zM1015,784h9v1h-9zM283,785h379v1h-379zM1015,785h9v1h-9zM283,786h379v1h-379zM1015,786h9v1h-9zM284,787h379v1h-379zM1015,787h9v1h-9zM284,788h379v1h-379zM1015,788h9v1h-9zM284,789h379v1h-379zM1015,789h9v1h-9zM284,790h380v1h-380zM1015,790h9v1h-9zM285,791h379v1h-379zM1015,791h9v1h-9zM285,792h379v1h-379zM1015,792h9v1h-9zM285,793h380v1h-380zM1015,793h9v1h-9zM285,794h380v1h-380zM1015,794h9v1h-9zM286,795h379v1h-379zM1015,795h9v1h-9zM286,796h380v1h-380zM1015,796h9v1h-9zM286,797h380v1h-380zM1015,797h9v1h-9zM286,798h380v1h-380zM1015,798h9v1h-9zM287,799h380v1h-380zM1015,799h9v1h-9zM287,800h380v1h-380zM1015,800h9v1h-9zM287,801h380v1h-380zM1015,801h9v1h-9zM287,802h381v1h-381zM1015,802h9v1h-9zM288,803h380v1h-380zM1015,803h9v1h-9zM288,804h380v1h-380zM1015,804h9v1h-9zM288,805h381v1h-381zM1015,805h9v1h-9zM289,806h380v1h-380zM1015,806h9v1h-9zM289,807h380v1h-380zM1015,807h9v1h-9zM289,808h381v1h-381zM1015,808h9v1h-9zM289,809h381v1h-381zM1015,809h9v1h-9zM290,810h380v1h-380zM1015,810h9v1h-9zM290,811h381v1h-381zM1015,811h9v1h-9zM290,812h381v1h-381zM1015,812h9v1h-9zM291,813h381v1h-381zM1015,813h9v1h-9zM291,814h381v1h-381zM1015,814h9v1h-9zM291,815h381v1h-381zM1015,815h9v1h-9zM291,816h382v1h-382zM1015,816h9v1h-9zM292,817h381v1h-381zM1015,817h9v1h-9zM292,818h381v1h-381zM1015,818h9v1h-9zM292,819h382v1h-382zM1015,819h9v1h-9zM293,820h381v1h-381zM1015,820h9v1h-9zM293,821h381v1h-381zM1015,821h9v1h-9zM293,822h382v1h-382zM1015,822h9v1h-9zM293,823h382v1h-382zM1015,823h9v1h-9zM293,824h382v1h-382zM1015,824h9v1h-9zM293,825h383v1h-383zM1015,825h9v1h-9zM293,826h383v1h-383zM1015,826h9v1h-9zM293,827h384v1h-384zM1015,827h9v1h-9zM293,828h384v1h-384zM1015,828h9v1h-9zM293,829h384v1h-384zM1015,829h9v1h-9zM293,830h385v1h-385zM1015,830h9v1h-9zM293,831h385v1h-385zM1015,831h9v1h-9zM293,832h385v1h-385zM1015,832h9v1h-9zM293,833h386v1h-386zM1015,833h9v1h-9zM293,834h386v1h-386zM1015,834h9v1h-9zM293,835h387v1h-387zM1015,835h9v1h-9zM293,836h387v1h-387zM1015,836h9v1h-9zM293,837h387v1h-387zM1015,837h9v1h-9zM293,838h388v1h-388zM1015,838h9v1h-9zM293,839h388v1h-388zM1015,839h9v1h-9zM293,840h389v1h-389zM1015,840h9v1h-9zM293,841h389v1h-389zM1015,841h9v1h-9zM293,842h390v1h-390zM1015,842h9v1h-9zM293,843h390v1h-390zM1015,843h9v1h-9zM293,844h390v1h-390zM1015,844h9v1h-9zM293,845h391v1h-391zM1015,845h9v1h-9zM293,846h391v1h-391zM1015,846h9v1h-9zM293,847h392v1h-392zM1015,847h9v1h-9zM294,848h391v1h-391zM1015,848h9v1h-9zM294,849h391v1h-391zM1015,849h9v1h-9zM294,850h392v1h-392zM1015,850h9v1h-9zM294,851h392v1h-392zM1015,851h9v1h-9zM294,852h392v1h-392zM1015,852h9v1h-9zM294,853h393v1h-393zM1015,853h9v1h-9zM294,854h393v1h-393zM1015,854h9v1h-9zM294,855h393v1h-393zM1015,855h9v1h-9zM294,856h394v1h-394zM1015,856h9v1h-9zM294,857h394v1h-394zM1015,857h9v1h-9zM295,858h394v1h-394zM1015,858h9v1h-9zM295,859h394v1h-394zM1015,859h9v1h-9zM295,860h395v1h-395zM1015,860h9v1h-9zM295,861h395v1h-395zM1015,861h9v1h-9zM295,862h396v1h-396zM1015,862h9v1h-9zM295,863h396v1h-396zM1015,863h9v1h-9zM295,864h396v1h-396zM1015,864h9v1h-9zM295,865h396v1h-396zM1015,865h9v1h-9zM295,866h397v1h-397zM1015,866h9v1h-9zM295,867h397v1h-397zM1015,867h9v1h-9zM296,868h396v1h-396zM1015,868h9v1h-9zM296,869h396v1h-396zM1015,869h9v1h-9zM296,870h397v1h-397zM1015,870h9v1h-9zM296,871h397v1h-397zM1015,871h9v1h-9zM296,872h397v1h-397zM1015,872h9v1h-9zM296,873h397v1h-397zM1015,873h9v1h-9zM296,874h397v1h-397zM1015,874h9v1h-9zM296,875h397v1h-397zM1015,875h9v1h-9zM296,876h397v1h-397zM1015,876h9v1h-9zM296,877h397v1h-397zM1015,877h9v1h-9zM297,878h396v1h-396zM1015,878h9v1h-9zM297,879h397v1h-397zM1015,879h9v1h-9zM297,880h397v1h-397zM1015,880h9v1h-9zM297,881h397v1h-397zM1015,881h9v1h-9zM297,882h397v1h-397zM1015,882h9v1h-9zM297,883h397v1h-397zM1015,883h9v1h-9zM297,884h397v1h-397zM1015,884h9v1h-9zM298,885h396v1h-396zM1015,885h9v1h-9zM298,886h396v1h-396zM1015,886h9v1h-9zM298,887h397v1h-397zM1015,887h9v1h-9zM298,888h397v1h-397zM1015,888h9v1h-9zM298,889h397v1h-397zM1015,889h9v1h-9zM298,890h397v1h-397zM1015,890h9v1h-9zM298,891h397v1h-397zM1015,891h9v1h-9zM298,892h397v1h-397zM1015,892h9v1h-9zM299,893h396v1h-396zM1015,893h9v1h-9zM299,894h396v1h-396zM1015,894h9v1h-9zM299,895h396v1h-396zM1015,895h9v1h-9zM299,896h397v1h-397zM1015,896h9v1h-9zM299,897h397v1h-397zM1015,897h9v1h-9zM299,898h397v1h-397zM1015,898h9v1h-9zM299,899h397v1h-397zM1015,899h9v1h-9zM299,900h397v1h-397zM1015,900h9v1h-9zM299,901h397v1h-397zM1015,901h9v1h-9zM299,902h398v1h-398zM1015,902h9v1h-9zM299,903h398v1h-398zM1015,903h9v1h-9zM299,904h398v1h-398zM1015,904h9v1h-9zM299,905h398v1h-398zM1015,905h9v1h-9zM299,906h398v1h-398zM1015,906h9v1h-9zM299,907h398v1h-398zM1015,907h9v1h-9zM299,908h399v1h-399zM1015,908h9v1h-9zM299,909h399v1h-399zM1015,909h9v1h-9zM299,910h399v1h-399zM1015,910h9v1h-9zM299,911h399v1h-399zM1015,911h9v1h-9zM299,912h399v1h-399zM1015,912h9v1h-9zM299,913h399v1h-399zM1015,913h9v1h-9zM299,914h400v1h-400zM1015,914h9v1h-9zM299,915h400v1h-400zM1015,915h9v1h-9zM299,916h400v1h-400zM1015,916h9v1h-9zM299,917h400v1h-400zM1015,917h9v1h-9zM299,918h400v1h-400zM1015,918h9v1h-9zM299,919h400v1h-400zM1015,919h9v1h-9zM298,920h402v1h-402zM1015,920h9v1h-9zM298,921h402v1h-402zM1015,921h9v1h-9zM298,922h402v1h-402zM1015,922h9v1h-9zM298,923h402v1h-402zM1015,923h9v1h-9zM298,924h402v1h-402zM1015,924h9v1h-9zM298,925h403v1h-403zM1015,925h9v1h-9zM298,926h403v1h-403zM1015,926h9v1h-9zM298,927h403v1h-403zM1015,927h9v1h-9zM298,928h403v1h-403zM1015,928h9v1h-9zM298,929h403v1h-403zM1015,929h9v1h-9zM298,930h404v1h-404zM1015,930h9v1h-9zM298,931h404v1h-404zM1015,931h9v1h-9zM298,932h404v1h-404zM1015,932h9v1h-9zM298,933h404v1h-404zM1015,933h9v1h-9zM298,934h404v1h-404zM1015,934h9v1h-9zM298,935h404v1h-404zM1015,935h9v1h-9zM298,936h404v1h-404zM1015,936h9v1h-9zM298,937h405v1h-405zM1015,937h9v1h-9zM298,938h405v1h-405zM1015,938h9v1h-9zM297,939h406v1h-406zM1015,939h9v1h-9zM297,940h406v1h-406zM1015,940h9v1h-9zM297,941h406v1h-406zM1015,941h9v1h-9zM297,942h406v1h-406zM1015,942h9v1h-9zM297,943h407v1h-407zM1015,943h9v1h-9zM297,944h407v1h-407zM1015,944h9v1h-9zM297,945h407v1h-407zM1015,945h9v1h-9zM297,946h407v1h-407zM1015,946h9v1h-9zM297,947h408v1h-408zM1015,947h9v1h-9zM297,948h408v1h-408zM1015,948h9v1h-9zM297,949h408v1h-408zM1015,949h9v1h-9zM297,950h408v1h-408zM1015,950h9v1h-9zM297,951h408v1h-408zM1015,951h9v1h-9zM297,952h408v1h-408zM1015,952h9v1h-9zM297,953h409v1h-409zM1015,953h9v1h-9zM297,954h409v1h-409zM1015,954h9v1h-9zM297,955h409v1h-409zM1015,955h9v1h-9zM296,956h410v1h-410zM1015,956h9v1h-9zM296,957h410v1h-410zM1015,957h9v1h-9zM296,958h411v1h-411zM1015,958h9v1h-9zM296,959h411v1h-411zM1015,959h9v1h-9zM296,960h411v1h-411zM1015,960h9v1h-9zM296,961h411v1h-411zM1015,961h9v1h-9zM296,962h411v1h-411zM1015,962h9v1h-9zM296,963h412v1h-412zM1015,963h9v1h-9zM296,964h412v1h-412zM1015,964h9v1h-9zM296,965h412v1h-412zM1015,965h9v1h-9zM296,966h412v1h-412zM1015,966h9v1h-9zM296,967h412v1h-412zM1015,967h9v1h-9zM296,968h197v1h-197zM497,968h212v1h-212zM1015,968h9v1h-9zM296,969h196v1h-196zM498,969h211v1h-211zM1015,969h9v1h-9zM296,970h195v1h-195zM499,970h210v1h-210zM1015,970h9v1h-9zM296,971h195v1h-195zM499,971h210v1h-210zM1015,971h9v1h-9zM296,972h195v1h-195zM500,972h210v1h-210zM1015,972h9v1h-9zM296,973h195v1h-195zM500,973h210v1h-210zM1015,973h9v1h-9zM296,974h195v1h-195zM501,974h210v1h-210zM1015,974h9v1h-9zM295,975h196v1h-196zM501,975h211v1h-211zM1015,975h9v1h-9zM295,976h196v1h-196zM501,976h212v1h-212zM1015,976h9v1h-9zM295,977h196v1h-196zM501,977h213v1h-213zM1015,977h9v1h-9zM295,978h196v1h-196zM501,978h214v1h-214zM1015,978h9v1h-9zM295,979h196v1h-196zM501,979h215v1h-215zM1015,979h9v1h-9zM295,980h196v1h-196zM502,980h215v1h-215zM1015,980h9v1h-9zM295,981h195v1h-195zM502,981h20v1h-20zM528,981h191v1h-191zM1015,981h9v1h-9zM295,982h195v1h-195zM502,982h19v1h-19zM531,982h189v1h-189zM753,982h6v1h-6zM1015,982h9v1h-9zM295,983h195v1h-195zM503,983h17v1h-17zM532,983h13v1h-13zM554,983h167v1h-167zM746,983h18v1h-18zM774,983h3v1h-3zM1015,983h9v1h-9zM295,984h195v1h-195zM503,984h17v1h-17zM534,984h10v1h-10zM559,984h164v1h-164zM744,984h39v1h-39zM1015,984h9v1h-9zM295,985h195v1h-195zM504,985h16v1h-16zM536,985h6v1h-6zM563,985h169v1h-169zM742,985h43v1h-43zM800,985h4v1h-4zM1015,985h9v1h-9zM295,986h194v1h-194zM504,986h16v1h-16zM538,986h3v1h-3zM566,986h239v1h-239zM1015,986h9v1h-9zM295,987h194v1h-194zM504,987h15v1h-15zM569,987h236v1h-236zM1015,987h9v1h-9zM295,988h194v1h-194zM504,988h14v1h-14zM573,988h232v1h-232zM1015,988h9v1h-9zM295,989h194v1h-194zM504,989h10v1h-10zM577,989h228v1h-228zM1015,989h9v1h-9zM295,990h194v1h-194zM503,990h10v1h-10zM581,990h224v1h-224zM1015,990h9v1h-9zM295,991h195v1h-195zM502,991h10v1h-10zM585,991h220v1h-220zM1015,991h9v1h-9zM295,992h196v1h-196zM497,992h15v1h-15zM589,992h217v1h-217zM1015,992h9v1h-9zM294,993h218v1h-218zM592,993h215v1h-215zM1015,993h9v1h-9zM294,994h218v1h-218zM595,994h223v1h-223zM1015,994h9v1h-9zM294,995h218v1h-218zM598,995h222v1h-222zM1015,995h9v1h-9zM294,996h218v1h-218zM535,996h4v1h-4zM600,996h222v1h-222zM1015,996h9v1h-9zM294,997h219v1h-219zM534,997h6v1h-6zM603,997h221v1h-221zM1015,997h9v1h-9zM294,998h219v1h-219zM533,998h8v1h-8zM605,998h220v1h-220zM1015,998h9v1h-9zM294,999h220v1h-220zM533,999h9v1h-9zM607,999h219v1h-219zM1015,999h9v1h-9zM294,1000h220v1h-220zM532,1000h11v1h-11zM608,1000h219v1h-219zM1015,1000h9v1h-9zM294,1001h221v1h-221zM532,1001h13v1h-13zM610,1001h218v1h-218zM1015,1001h9v1h-9zM294,1002h221v1h-221zM531,1002h15v1h-15zM611,1002h218v1h-218zM1015,1002h9v1h-9zM294,1003h221v1h-221zM531,1003h16v1h-16zM613,1003h216v1h-216zM1015,1003h9v1h-9zM294,1004h221v1h-221zM530,1004h18v1h-18zM616,1004h214v1h-214zM1015,1004h9v1h-9zM294,1005h221v1h-221zM530,1005h18v1h-18zM620,1005h210v1h-210zM1015,1005h9v1h-9zM294,1006h221v1h-221zM529,1006h20v1h-20zM626,1006h204v1h-204zM1015,1006h9v1h-9zM294,1007h222v1h-222zM529,1007h20v1h-20zM631,1007h199v1h-199zM1015,1007h9v1h-9zM294,1008h222v1h-222zM529,1008h21v1h-21zM636,1008h195v1h-195zM1015,1008h9v1h-9zM294,1009h223v1h-223zM529,1009h21v1h-21zM641,1009h190v1h-190zM1015,1009h9v1h-9zM294,1010h223v1h-223zM528,1010h22v1h-22zM583,1010h1v1h-1zM645,1010h186v1h-186zM1015,1010h9v1h-9zM294,1011h224v1h-224zM528,1011h23v1h-23zM581,1011h4v1h-4zM649,1011h182v1h-182zM1015,1011h9v1h-9zM294,1012h224v1h-224zM527,1012h25v1h-25zM580,1012h6v1h-6zM654,1012h176v1h-176zM1015,1012h9v1h-9zM294,1013h224v1h-224zM527,1013h26v1h-26zM579,1013h7v1h-7zM662,1013h168v1h-168zM1015,1013h9v1h-9zM294,1014h224v1h-224zM526,1014h28v1h-28zM579,1014h7v1h-7zM667,1014h163v1h-163zM1015,1014h9v1h-9zM294,1015h224v1h-224zM526,1015h28v1h-28zM578,1015h8v1h-8zM684,1015h146v1h-146zM1015,1015h9v1h-9zM294,1016h224v1h-224zM526,1016h29v1h-29zM578,1016h8v1h-8zM701,1016h129v1h-129zM1015,1016h9v1h-9zM294,1017h224v1h-224zM525,1017h31v1h-31zM578,1017h8v1h-8zM711,1017h119v1h-119zM1015,1017h9v1h-9zM294,1018h171v1h-171zM469,1018h49v1h-49zM525,1018h32v1h-32zM577,1018h8v1h-8zM720,1018h110v1h-110zM1015,1018h9v1h-9zM294,1019h168v1h-168zM470,1019h48v1h-48zM525,1019h34v1h-34zM576,1019h9v1h-9zM721,1019h109v1h-109zM1015,1019h9v1h-9zM293,1020h168v1h-168zM471,1020h48v1h-48zM524,1020h36v1h-36zM575,1020h9v1h-9zM722,1020h108v1h-108zM1015,1020h9v1h-9zM293,1021h168v1h-168zM471,1021h49v1h-49zM523,1021h39v1h-39zM574,1021h10v1h-10zM723,1021h108v1h-108zM1015,1021h9v1h-9zM293,1022h167v1h-167zM471,1022h93v1h-93zM572,1022h12v1h-12zM723,1022h108v1h-108zM1015,1022h9v1h-9zM293,1023h167v1h-167zM471,1023h113v1h-113zM723,1023h108v1h-108zM1015,1023h9v1h-9z"/></svg>